:SAMPLES-PER-SECOND 30
:FULLY-SPECIFIED
:DEGREES
1
root  80.4472 40.4274 -6.52727 -173.83 -89.7777 175.037
RightUpLeg  -1.37513 -8.12278 -5.94046
RightLeg  1.99133 -2.00005 3.66258
RightFoot  -0.463371 -0.0838597 0.899846
RightToes  -5.8209e-011 0 -3.6325e-017
Spine  3.969 -0.462465 1.77106
Spine1  -1.70656 -0.0597259 -2.34547
HEad  -0.295163 3.68879 0.874891
LeftShoulder1  0.430698 0.696052 -7.59771
LeftArm  -15.3547 6.60868 0.469324
LeftForeArm  12.4953 -1.66467 -2.73479
LeftHand  -0.244104 0.0205437 5.32207
RightShoulder  0.427895 -0.509629 6.64715
RightArm  -19.9153 3.39137 -0.961055
RightForeArm  2.83139 -1.05463 3.35335
RightHand  -0.847388 2.60697 -12.5232
LeftUpLeg  -1.94965 6.20123 5.52801
LeftLeg  1.68687 8.32866 -3.8536
LeftFoot  -0.78392 0.192271 -2.14687
LeftToes  -6.09394e-011 -3.18376e-011 -2.71738e-012
2
root  80.4553 40.4274 -6.5226 179.95 -89.757 -178.774
RightUpLeg  -1.33604 -8.11306 -5.92573
RightLeg  1.9471 -1.98597 3.67311
RightFoot  -0.418498 -0.0822456 0.874798
RightToes  -5.8209e-011 0 -3.6325e-017
Spine  2.53528 -0.332903 1.71536
Spine1  0.418483 0.0563037 -2.15862
HEad  -1.48448 3.80982 0.613593
LeftShoulder1  0.500409 0.284134 -7.85619
LeftArm  -15.7039 6.43898 0.563866
LeftForeArm  12.1287 -1.33942 -2.58418
LeftHand  -0.244104 0.0205437 5.32207
RightShoulder  0.423991 -0.494799 6.42129
RightArm  -20.3307 3.36639 -0.862261
RightForeArm  2.65833 -1.21582 3.21371
RightHand  -0.851364 2.66044 -12.4322
LeftUpLeg  -1.95693 6.22307 5.55088
LeftLeg  1.75146 8.32096 -3.84671
LeftFoot  -0.783855 0.190447 -2.11852
LeftToes  -6.09394e-011 -3.18376e-011 -2.71738e-012
3
root  80.4672 40.4274 -6.51626 177.114 -89.7213 -175.985
RightUpLeg  -1.30222 -8.09225 -5.91544
RightLeg  1.92653 -1.96365 3.66185
RightFoot  -0.386311 -0.0806203 0.849573
RightToes  -5.8209e-011 0 -3.6325e-017
Spine  1.35362 -0.202437 1.69151
Spine1  2.19121 0.182459 -2.05187
HEad  -2.54971 3.97222 0.366489
LeftShoulder1  0.572893 -0.155148 -8.01312
LeftArm  -16.0115 6.31083 0.642275
LeftForeArm  11.9221 -0.973002 -2.43169
LeftHand  -0.244104 0.0205437 5.32207
RightShoulder  0.407724 -0.579801 6.2573
RightArm  -20.5872 3.34865 -0.765237
RightForeArm  2.18052 -1.29553 3.15903
RightHand  -0.852172 2.69863 -12.4171
LeftUpLeg  -1.95158 6.23862 5.56177
LeftLeg  1.82016 8.33697 -3.83896
LeftFoot  -0.783773 0.188088 -2.08184
LeftToes  -6.09394e-011 -3.18376e-011 -2.71738e-012
4
root  80.4768 40.4274 -6.50941 179.242 -89.6973 -178.164
RightUpLeg  -1.28424 -8.09159 -5.93192
RightLeg  1.96568 -1.93462 3.64332
RightFoot  -0.401396 -0.0785732 0.817803
RightToes  -5.8209e-011 0 -3.6325e-017
Spine  1.4928 -0.157736 1.6153
Spine1  2.05587 0.204724 -1.93226
HEad  -2.19792 3.99146 0.293146
LeftShoulder1  0.594881 -0.284995 -8.06604
LeftArm  -15.974 6.35009 0.696165
LeftForeArm  12.041 -0.901014 -2.42508
LeftHand  -0.244104 0.0205437 5.32207
RightShoulder  0.382475 -0.749014 6.18615
RightArm  -20.4676 3.3575 -0.685417
RightForeArm  1.47958 -1.18267 3.25336
RightHand  -0.834458 2.35866 -12.6715
LeftUpLeg  -1.9106 6.22945 5.54503
LeftLeg  1.83314 8.3714 -3.83396
LeftFoot  -0.783745 0.187283 -2.06932
LeftToes  -6.09394e-011 -3.18376e-011 -2.71738e-012
5
root  80.4851 40.4274 -6.49964 -177.969 -89.7007 178.992
RightUpLeg  -1.27115 -8.13122 -5.97218
RightLeg  2.04449 -1.91219 3.65052
RightFoot  -0.43664 -0.0690674 0.694534
RightToes  -5.8209e-011 0 -3.6325e-017
Spine  1.91379 -0.147362 1.35993
Spine1  1.57133 0.128436 -1.49265
HEad  -1.93593 4.00355 0.066433
LeftShoulder1  0.594554 -0.218959 -8.36794
LeftArm  -15.8634 6.36423 0.811814
LeftForeArm  12.1102 -0.992523 -2.47676
LeftHand  -0.244104 0.0205437 5.32207
RightShoulder  0.351934 -0.919053 5.88499
RightArm  -20.4708 3.39322 -0.447561
RightForeArm  1.26806 -1.08211 3.26904
RightHand  -0.812532 1.99999 -12.9127
LeftUpLeg  -1.85123 6.20322 5.51346
LeftLeg  1.8067 8.39736 -3.82841
LeftFoot  -0.783752 0.187461 -2.07209
LeftToes  -6.09394e-011 -3.18376e-011 -2.71738e-012
6
root  80.4942 40.4271 -6.48728 -174.841 -89.7137 175.818
RightUpLeg  -1.27327 -8.18672 -6.02139
RightLeg  2.13243 -1.89634 3.67238
RightFoot  -0.464068 -0.0523552 0.514403
RightToes  -5.8209e-011 0 -3.6325e-017
Spine  2.49621 -0.25808 1.37259
Spine1  0.924507 0.0140596 -1.49646
HEad  -1.78988 4.08771 0.0261739
LeftShoulder1  0.543142 0.110981 -8.34752
LeftArm  -15.8024 6.39344 0.710117
LeftForeArm  12.2276 -1.12871 -2.51533
LeftHand  -0.244104 0.0205437 5.32207
RightShoulder  0.341268 -0.974907 5.74707
RightArm  -20.6276 3.44562 -0.191264
RightForeArm  1.95452 -1.07982 3.1794
RightHand  -0.828666 2.22272 -12.8011
LeftUpLeg  -1.80616 6.1738 5.4737
LeftLeg  1.77842 8.42218 -3.82335
LeftFoot  -0.78282 0.186865 -2.06283
LeftToes  -6.09394e-011 -3.18376e-011 -2.71738e-012
7
root  80.5041 40.4257 -6.47557 -170.657 -89.6908 171.608
RightUpLeg  -1.29619 -8.22323 -6.07154
RightLeg  2.19826 -1.84582 3.68007
RightFoot  -0.480558 -0.0464471 0.470777
RightToes  -5.8209e-011 0 -3.6325e-017
Spine  3.06605 -0.544504 1.93888
Spine1  0.361358 -0.0930181 -2.47724
HEad  -1.70699 4.38594 0.389443
LeftShoulder1  0.410079 0.811841 -7.50095
LeftArm  -15.8466 6.44775 0.0731554
LeftForeArm  12.4534 -1.26453 -2.5167
LeftHand  -0.244104 0.0205437 5.32207
RightShoulder  0.35501 -0.915949 6.00037
RightArm  -20.8678 3.6002 0.0814481
RightForeArm  2.74825 -1.17934 3.06903
RightHand  -0.867919 2.77869 -12.5178
LeftUpLeg  -1.78162 6.15291 5.42868
LeftLeg  1.76187 8.4772 -3.82558
LeftFoot  -0.78317 0.185654 -2.04399
LeftToes  -6.09394e-011 -3.18376e-011 -2.71738e-012
8
root  80.5138 40.4226 -6.46558 -168.876 -89.6211 169.817
RightUpLeg  -1.33349 -8.23994 -6.11171
RightLeg  2.23843 -1.7467 3.67793
RightFoot  -0.493345 -0.0518607 0.590631
RightToes  -5.8209e-011 0 -3.6325e-017
Spine  3.10932 -0.476699 1.57927
Spine1  0.431106 -0.136124 -1.88526
HEad  -1.66659 4.42034 0.10854
LeftShoulder1  0.413274 0.879956 -8.02073
LeftArm  -15.7163 6.33098 0.267394
LeftForeArm  12.2857 -1.26998 -2.59299
LeftHand  -0.244104 0.0205437 5.32207
RightShoulder  0.327379 -1.04825 5.56081
RightArm  -20.984 3.62803 0.343895
RightForeArm  2.8236 -1.23231 3.02852
RightHand  -0.88329 2.96384 -12.4662
LeftUpLeg  -1.77383 6.14628 5.39594
LeftLeg  1.76208 8.55874 -3.83422
LeftFoot  -0.804064 0.185518 -2.04187
LeftToes  -6.09394e-011 -3.18376e-011 -2.71738e-012
9
root  80.5236 40.4194 -6.45537 -170.692 -89.554 171.635
RightUpLeg  -1.39315 -8.25179 -6.12538
RightLeg  2.30445 -1.66967 3.68135
RightFoot  -0.513209 -0.052041 0.611524
RightToes  -5.8209e-011 0 -3.6325e-017
Spine  2.96391 -0.283673 0.951702
Spine1  0.663623 -0.147611 -0.790149
HEad  -1.65146 4.31898 -0.346607
LeftShoulder1  0.465974 0.693491 -8.97928
LeftArm  -15.5148 6.16931 0.741309
LeftForeArm  11.9305 -1.28719 -2.70833
LeftHand  -0.244104 0.0205437 5.32207
RightShoulder  0.303797 -1.13766 5.01265
RightArm  -20.8058 3.47571 0.427408
RightForeArm  2.50282 -1.12365 3.0958
RightHand  -0.881651 2.81008 -12.6656
LeftUpLeg  -1.79324 6.14691 5.38611
LeftLeg  1.79332 8.62564 -3.83474
LeftFoot  -0.852806 0.18644 -2.0562
LeftToes  -6.09394e-011 -3.18376e-011 -2.71738e-012
10
root  80.532 40.4178 -6.4439 -173.284 -89.527 174.229
RightUpLeg  -1.46522 -8.25776 -6.11651
RightLeg  2.41408 -1.66483 3.67987
RightFoot  -0.542821 -0.0409836 0.434778
RightToes  -5.8209e-011 0 -3.6325e-017
Spine  2.79176 -0.308299 0.960347
Spine1  0.98159 -0.180153 -0.747677
HEad  -1.79778 4.34551 -0.362539
LeftShoulder1  0.443326 0.84162 -9.03708
LeftArm  -15.5381 6.07499 0.653583
LeftForeArm  11.753 -1.33961 -2.73054
LeftHand  -0.244104 0.0205437 5.32207
RightShoulder  0.316923 -1.0256 4.95267
RightArm  -20.5656 3.31591 0.447996
RightForeArm  2.33968 -0.945772 3.18507
RightHand  -0.893859 2.82529 -12.8143
LeftUpLeg  -1.83624 6.13844 5.38118
LeftLeg  1.86188 8.66359 -3.81404
LeftFoot  -0.905028 0.186746 -2.06096
LeftToes  -6.09394e-011 -3.18376e-011 -2.71738e-012
11
root  80.5358 40.417 -6.43248 -173.68 -89.5116 174.612
RightUpLeg  -1.49114 -8.25713 -6.12462
RightLeg  2.47608 -1.6549 3.66469
RightFoot  -0.561055 -0.0400672 0.38214
RightToes  -5.8209e-011 0 -3.6325e-017
Spine  2.83725 -0.31808 0.910105
Spine1  0.980624 -0.205093 -0.668531
HEad  -1.82239 4.32643 -0.42259
LeftShoulder1  0.4451 0.855709 -9.2065
LeftArm  -15.533 6.06509 0.76878
LeftForeArm  11.7547 -1.34397 -2.73063
LeftHand  -0.244104 0.0205437 5.32207
RightShoulder  0.326678 -0.954128 4.98056
RightArm  -20.3633 3.19886 0.367938
RightForeArm  2.20875 -0.831413 3.26583
RightHand  -0.905024 2.95077 -12.7841
LeftUpLeg  -1.86141 6.11467 5.35383
LeftLeg  1.9355 8.70656 -3.78068
LeftFoot  -0.939719 0.186358 -2.05494
LeftToes  -6.09394e-011 -3.18376e-011 -2.71738e-012
12
root  80.5349 40.4165 -6.42173 -171.566 -89.4654 172.468
RightUpLeg  -1.43897 -8.26432 -6.17458
RightLeg  2.42047 -1.55702 3.65331
RightFoot  -0.545413 -0.0647662 0.646353
RightToes  -5.8209e-011 0 -3.6325e-017
Spine  2.92633 -0.311779 0.863121
Spine1  0.918945 -0.196552 -0.682921
HEad  -1.74605 4.3619 -0.475225
LeftShoulder1  0.453635 0.820447 -9.31755
LeftArm  -15.4757 6.09709 0.907844
LeftForeArm  11.8425 -1.3532 -2.74181
LeftHand  -0.244104 0.0205437 5.32207
RightShoulder  0.331304 -0.949428 5.15837
RightArm  -20.3821 3.22829 0.200212
RightForeArm  1.94804 -0.897576 3.27651
RightHand  -0.882883 2.82198 -12.6653
LeftUpLeg  -1.83156 6.08664 5.3047
LeftLeg  1.95882 8.77784 -3.75773
LeftFoot  -0.95726 0.186914 -2.06359
LeftToes  -6.09394e-011 -3.18376e-011 -2.71738e-012
13
root  80.533 40.4163 -6.40994 -170.435 -89.4022 171.306
RightUpLeg  -1.37156 -8.2793 -6.22392
RightLeg  2.3346 -1.44257 3.65143
RightFoot  -0.509611 -0.0870216 0.873319
RightToes  -5.8209e-011 0 -3.6325e-017
Spine  2.99651 -0.299788 0.894117
Spine1  0.873529 -0.156863 -0.826809
HEad  -1.66659 4.49642 -0.415315
LeftShoulder1  0.455983 0.797598 -9.25846
LeftArm  -15.3945 6.14439 0.919233
LeftForeArm  11.9131 -1.41798 -2.77167
LeftHand  -0.244104 0.0205437 5.32207
RightShoulder  0.337302 -0.958137 5.47334
RightArm  -20.4933 3.27478 -0.0496133
RightForeArm  1.8906 -0.990711 3.23526
RightHand  -0.84696 2.55505 -12.5516
LeftUpLeg  -1.76782 6.06509 5.26509
LeftLeg  1.9214 8.85391 -3.75119
LeftFoot  -0.964806 0.188307 -2.08524
LeftToes  -6.09394e-011 -3.18376e-011 -2.71738e-012
14
root  80.5309 40.4163 -6.39611 -172.213 -89.3596 173.065
RightUpLeg  -1.3597 -8.27854 -6.22007
RightLeg  2.33747 -1.42015 3.6383
RightFoot  -0.487623 -0.0808482 0.732752
RightToes  -5.8209e-011 0 -3.6325e-017
Spine  3.15214 -0.295775 0.947759
Spine1  0.697841 -0.133171 -0.923798
HEad  -1.58886 4.69956 -0.306652
LeftShoulder1  0.457919 0.777625 -9.17329
LeftArm  -15.3151 6.24693 0.88877
LeftForeArm  11.9442 -1.51532 -2.79896
LeftHand  -0.244104 0.0205437 5.32207
RightShoulder  0.344476 -0.947785 5.72863
RightArm  -20.4896 3.21646 -0.26409
RightForeArm  2.10524 -0.948101 3.21667
RightHand  -0.83712 2.48566 -12.5133
LeftUpLeg  -1.71964 6.0536 5.25717
LeftLeg  1.88088 8.90531 -3.74595
LeftFoot  -0.971642 0.188157 -2.0829
LeftToes  -6.09394e-011 -3.18376e-011 -2.71738e-012
